<?xml version="1.0" encoding="UTF-8" standalone="yes"?>
<!DOCTYPE svg PUBLIC "-//W3C//DTD SVG 1.1//EN" "http://www.w3.org/Graphics/SVG/1.1/DTD/svg11.dtd">

<svg width="719" height="219" viewBox="0 0 719 219" xmlns="http://www.w3.org/2000/svg" xmlns:xlink="http://www.w3.org/1999/xlink" version="1.1" baseProfile="full">
    <g transform="scale(1.000000,-1.000000) translate(0,-219)">
        <path d="M 132.925781 1.000000 L 1.000000 1.000000 L 1.000000 3.500000 L 132.925781 3.500000 L 132.925781 1.000000 Z" transform="scale(1.000000,1.000000) translate(576.703125,58.019502)" fill="#000000" opacity="1.000000"></path>
        <path d="M 1.000000 3.500000 L 132.925781 3.500000 L 132.925781 1.000000 L 1.000000 1.000000 L 1.000000 3.500000 Z" transform="scale(1.000000,1.000000) translate(-1.000000,58.019502)" fill="#000000" opacity="1.000000"></path>
        <path d="M 20.884674 90.093667 L 20.884674 72.210373 L 36.250103 72.210373 L 36.250103 65.883431 L 20.884674 65.883431 L 20.884674 20.368188 Q 20.884674 13.524762 23.370258 10.651814 Q 25.855842 7.778866 29.987722 7.778866 Q 31.408056 7.778866 32.731549 7.940268 Q 34.055042 8.101669 35.862739 8.489033 L 37.024831 2.743137 Q 35.475376 1.968409 33.183473 1.484205 Q 30.891571 1.000000 28.631949 1.000000 Q 21.272037 1.000000 17.172437 5.648365 Q 13.072837 10.296730 13.072837 20.368188 L 13.072837 65.883431 L 1.000000 65.883431 L 1.000000 72.210373 L 13.072837 72.210373 L 13.072837 90.093667 Z M 47.031728 38.316043 Q 47.031728 53.746033 55.489170 63.623809 Q 63.946613 73.501586 77.891708 73.501586 Q 91.901365 73.501586 100.358807 63.623809 Q 108.816249 53.746033 108.816249 38.316043 L 108.816249 36.185542 Q 108.816249 20.690992 100.391087 10.845496 Q 91.965925 1.000000 78.020830 1.000000 Q 63.946613 1.000000 55.489170 10.845496 Q 47.031728 20.690992 47.031728 36.185542 Z M 54.779003 36.185542 Q 54.779003 24.048144 60.912263 15.784384 Q 67.045523 7.520623 78.020830 7.520623 Q 88.802455 7.520623 94.967995 15.784384 Q 101.133535 24.048144 101.133535 36.185542 L 101.133535 38.316043 Q 101.133535 50.259759 94.935714 58.588080 Q 88.737894 66.916402 77.891708 66.916402 Q 67.045523 66.916402 60.912263 58.588080 Q 54.779003 50.259759 54.779003 38.316043 Z M 120.630844 38.316043 Q 120.630844 53.746033 129.088287 63.623809 Q 137.545729 73.501586 151.490825 73.501586 Q 165.500481 73.501586 173.957923 63.623809 Q 182.415366 53.746033 182.415366 38.316043 L 182.415366 36.185542 Q 182.415366 20.690992 173.990204 10.845496 Q 165.565042 1.000000 151.619946 1.000000 Q 137.545729 1.000000 129.088287 10.845496 Q 120.630844 20.690992 120.630844 36.185542 Z M 128.378120 36.185542 Q 128.378120 24.048144 134.511379 15.784384 Q 140.644639 7.520623 151.619946 7.520623 Q 162.401571 7.520623 168.567111 15.784384 Q 174.732651 24.048144 174.732651 36.185542 L 174.732651 38.316043 Q 174.732651 50.259759 168.534830 58.588080 Q 162.337010 66.916402 151.490825 66.916402 Q 140.644639 66.916402 134.511379 58.588080 Q 128.378120 50.259759 128.378120 38.316043 Z M 207.206647 2.355773 L 199.523932 2.355773 L 199.523932 103.070353 L 207.206647 103.070353 Z M 284.873083 35.346254 Q 284.873083 19.658022 277.771414 10.329011 Q 270.669744 1.000000 258.209543 1.000000 Q 250.591389 1.000000 245.006895 4.066630 Q 239.422400 7.133260 235.936126 12.814595 L 234.644914 2.355773 L 228.576215 2.355773 L 228.576215 103.070353 L 236.323490 103.070353 L 236.323490 61.493309 Q 239.809764 67.239205 245.232857 70.370395 Q 250.655950 73.501586 258.080422 73.501586 Q 270.669744 73.501586 277.771414 63.462408 Q 284.873083 53.423230 284.873083 36.702027 Z M 277.061247 36.702027 Q 277.061247 50.066078 271.896396 58.426679 Q 266.731546 66.787280 256.595528 66.787280 Q 248.590010 66.787280 243.683402 62.881362 Q 238.776794 58.975444 236.323490 52.777624 L 236.323490 20.820113 Q 238.905915 14.751414 243.973925 11.232860 Q 249.041934 7.714305 256.724649 7.714305 Q 266.860667 7.714305 271.960957 15.203338 Q 277.061247 22.692371 277.061247 35.346254 Z M 297.849769 38.316043 Q 297.849769 53.746033 306.307211 63.623809 Q 314.764654 73.501586 328.709749 73.501586 Q 342.719406 73.501586 351.176848 63.623809 Q 359.634290 53.746033 359.634290 38.316043 L 359.634290 36.185542 Q 359.634290 20.690992 351.209128 10.845496 Q 342.783966 1.000000 328.838871 1.000000 Q 314.764654 1.000000 306.307211 10.845496 Q 297.849769 20.690992 297.849769 36.185542 Z M 305.597044 36.185542 Q 305.597044 24.048144 311.730304 15.784384 Q 317.863564 7.520623 328.838871 7.520623 Q 339.620496 7.520623 345.786036 15.784384 Q 351.951576 24.048144 351.951576 36.185542 L 351.951576 38.316043 Q 351.951576 50.259759 345.753755 58.588080 Q 339.555935 66.916402 328.709749 66.916402 Q 317.863564 66.916402 311.730304 58.588080 Q 305.597044 50.259759 305.597044 38.316043 Z M 397.725061 43.674575 L 416.641325 72.210373 L 425.808934 72.210373 L 402.115184 37.928679 L 426.777344 2.355773 L 417.738856 2.355773 L 397.854182 32.118223 L 377.969509 2.355773 L 368.801900 2.355773 L 393.528620 37.928679 L 369.834870 72.210373 L 378.937918 72.210373 Z" transform="scale(1.000000,1.000000) translate(140.925781,8.234326)" fill="#000000" opacity="1.000000"></path>
        <path d="M 57.030273 41.781250 L 57.293945 41.781250 L 65.028320 83.265625 L 80.057617 83.265625 L 65.379883 19.281250 L 51.405273 19.281250 L 40.638672 58.788086 L 40.375000 58.788086 L 29.696289 19.281250 L 15.721680 19.281250 L 1.000000 83.265625 L 16.073242 83.265625 L 23.807617 41.737305 L 24.071289 41.693359 L 34.925781 83.265625 L 46.131836 83.265625 Z M 105.985352 18.358398 Q 95.174805 18.358398 89.044434 24.906250 Q 82.914062 31.454102 82.914062 41.473633 L 82.914062 43.143555 Q 82.914062 54.041992 88.692871 60.897461 Q 94.471680 67.752930 105.414062 67.708984 Q 115.038086 67.708984 120.333496 61.952148 Q 125.628906 56.195312 125.628906 46.175781 L 125.628906 38.397461 L 98.382812 38.397461 L 98.294922 38.133789 Q 98.646484 34.398438 101.063477 32.091309 Q 103.480469 29.784180 108.006836 29.784180 Q 112.269531 29.784180 115.104004 30.487305 Q 117.938477 31.190430 121.585938 32.728516 L 125.145508 23.675781 Q 122.069336 21.434570 116.883789 19.896484 Q 111.698242 18.358398 105.985352 18.358398 Z M 105.414062 56.283203 Q 101.854492 56.283203 100.162598 54.020020 Q 98.470703 51.756836 98.207031 47.889648 L 98.294922 47.669922 L 111.126953 47.669922 L 111.126953 48.812500 Q 111.126953 52.503906 109.830566 54.393555 Q 108.534180 56.283203 105.414062 56.283203 Z M 175.946289 42.044922 Q 175.946289 31.190430 171.288086 24.774414 Q 166.629883 18.358398 157.489258 18.358398 Q 153.622070 18.358398 150.721680 20.028320 Q 147.821289 21.698242 145.755859 24.862305 L 144.876953 19.281250 L 131.913086 19.281250 L 131.913086 87.835938 L 146.766602 87.835938 L 146.766602 62.215820 Q 148.744141 64.852539 151.358887 66.280762 Q 153.973633 67.708984 157.401367 67.708984 Q 166.585938 67.708984 171.266113 60.985352 Q 175.946289 54.261719 175.946289 42.967773 Z M 161.136719 42.967773 Q 161.136719 49.295898 159.554688 52.789551 Q 157.972656 56.283203 153.666016 56.283203 Q 151.249023 56.283203 149.513184 55.382324 Q 147.777344 54.481445 146.766602 52.767578 L 146.766602 32.772461 Q 147.821289 31.278320 149.557129 30.531250 Q 151.292969 29.784180 153.753906 29.784180 Q 158.148438 29.784180 159.642578 32.838379 Q 161.136719 35.892578 161.136719 42.044922 Z M 254.916016 40.858398 L 255.003906 40.594727 Q 255.179688 29.652344 248.829590 24.005371 Q 242.479492 18.358398 230.833984 18.358398 Q 218.968750 18.358398 211.783691 25.609375 Q 204.598633 32.860352 204.598633 44.593750 L 204.598633 57.953125 Q 204.598633 69.642578 211.520020 76.915527 Q 218.441406 84.188477 229.823242 84.188477 Q 241.996094 84.188477 248.653809 78.519531 Q 255.311523 72.850586 255.135742 62.040039 L 255.003906 61.776367 L 240.545898 61.776367 Q 240.545898 67.665039 238.041016 70.213867 Q 235.536133 72.762695 229.823242 72.762695 Q 224.813477 72.762695 222.132812 68.741699 Q 219.452148 64.720703 219.452148 58.041016 L 219.452148 44.593750 Q 219.452148 37.870117 222.396484 33.827148 Q 225.340820 29.784180 230.833984 29.784180 Q 235.931641 29.784180 238.194824 32.333008 Q 240.458008 34.881836 240.458008 40.858398 Z M 260.365234 43.495117 Q 260.365234 54.217773 266.429688 60.963379 Q 272.494141 67.708984 283.348633 67.708984 Q 294.247070 67.708984 300.311523 60.963379 Q 306.375977 54.217773 306.375977 43.495117 L 306.375977 42.572266 Q 306.375977 31.805664 300.311523 25.082031 Q 294.247070 18.358398 283.436523 18.358398 Q 272.494141 18.358398 266.429688 25.082031 Q 260.365234 31.805664 260.365234 42.572266 Z M 275.218750 42.572266 Q 275.218750 36.595703 277.086426 33.189941 Q 278.954102 29.784180 283.436523 29.784180 Q 287.787109 29.784180 289.676758 33.211914 Q 291.566406 36.639648 291.566406 42.572266 L 291.566406 43.495117 Q 291.566406 49.295898 289.676758 52.789551 Q 287.787109 56.283203 283.348633 56.283203 Q 278.954102 56.283203 277.086426 52.767578 Q 275.218750 49.251953 275.218750 43.495117 Z M 326.898438 66.830078 L 327.425781 60.545898 Q 329.666992 63.973633 333.072754 65.841309 Q 336.478516 67.708984 340.873047 67.708984 Q 345.311523 67.708984 348.519531 65.775391 Q 351.727539 63.841797 353.353516 59.886719 Q 355.550781 63.622070 359.000488 65.665527 Q 362.450195 67.708984 367.064453 67.708984 Q 374.007812 67.708984 377.984863 62.721191 Q 381.961914 57.733398 381.961914 47.362305 L 381.961914 19.281250 L 367.064453 19.281250 L 367.064453 47.362305 Q 367.064453 52.459961 365.636230 54.371582 Q 364.208008 56.283203 361.351562 56.283203 Q 359.198242 56.283203 357.550293 55.514160 Q 355.902344 54.745117 354.759766 53.382812 Q 354.759766 52.635742 354.803711 52.086426 Q 354.847656 51.537109 354.847656 51.009766 L 354.847656 19.281250 L 339.994141 19.281250 L 339.994141 47.362305 Q 339.994141 52.503906 338.587891 54.393555 Q 337.181641 56.283203 334.237305 56.283203 Q 332.215820 56.283203 330.567871 55.514160 Q 328.919922 54.745117 327.777344 53.382812 L 327.777344 19.281250 L 312.923828 19.281250 L 312.923828 66.830078 Z M 434.476562 42.044922 Q 434.476562 31.322266 429.642578 24.840332 Q 424.808594 18.358398 416.019531 18.358398 Q 412.591797 18.358398 409.933105 19.676758 Q 407.274414 20.995117 405.296875 23.500000 L 405.296875 1.000000 L 390.443359 1.000000 L 390.443359 66.830078 L 404.461914 66.830078 L 404.901367 61.644531 Q 406.878906 64.544922 409.625488 66.126953 Q 412.372070 67.708984 415.931641 67.708984 Q 424.764648 67.708984 429.620605 60.897461 Q 434.476562 54.085938 434.476562 42.967773 Z M 419.666992 42.967773 Q 419.666992 48.988281 417.909180 52.635742 Q 416.151367 56.283203 412.284180 56.283203 Q 409.779297 56.283203 408.043457 55.360352 Q 406.307617 54.437500 405.296875 52.679688 L 405.296875 32.816406 Q 406.351562 31.278320 408.087402 30.531250 Q 409.823242 29.784180 412.372070 29.784180 Q 416.283203 29.784180 417.975098 33.014160 Q 419.666992 36.244141 419.666992 42.044922 Z M 439.046875 43.495117 Q 439.046875 54.217773 445.111328 60.963379 Q 451.175781 67.708984 462.030273 67.708984 Q 472.928711 67.708984 478.993164 60.963379 Q 485.057617 54.217773 485.057617 43.495117 L 485.057617 42.572266 Q 485.057617 31.805664 478.993164 25.082031 Q 472.928711 18.358398 462.118164 18.358398 Q 451.175781 18.358398 445.111328 25.082031 Q 439.046875 31.805664 439.046875 42.572266 Z M 453.900391 42.572266 Q 453.900391 36.595703 455.768066 33.189941 Q 457.635742 29.784180 462.118164 29.784180 Q 466.468750 29.784180 468.358398 33.211914 Q 470.248047 36.639648 470.248047 42.572266 L 470.248047 43.495117 Q 470.248047 49.295898 468.358398 52.789551 Q 466.468750 56.283203 462.030273 56.283203 Q 457.635742 56.283203 455.768066 52.767578 Q 453.900391 49.251953 453.900391 43.495117 Z M 505.272461 66.830078 L 505.843750 60.150391 Q 508.172852 63.709961 511.600586 65.709473 Q 515.028320 67.708984 519.247070 67.708984 Q 526.234375 67.708984 530.167480 62.962891 Q 534.100586 58.216797 534.100586 47.889648 L 534.100586 19.281250 L 519.247070 19.281250 L 519.247070 47.933594 Q 519.247070 52.459961 517.796875 54.371582 Q 516.346680 56.283203 513.578125 56.283203 Q 511.205078 56.283203 509.315430 55.448242 Q 507.425781 54.613281 506.151367 53.075195 L 506.151367 19.281250 L 491.341797 19.281250 L 491.341797 66.830078 Z M 563.280273 18.358398 Q 552.469727 18.358398 546.339355 24.906250 Q 540.208984 31.454102 540.208984 41.473633 L 540.208984 43.143555 Q 540.208984 54.041992 545.987793 60.897461 Q 551.766602 67.752930 562.708984 67.708984 Q 572.333008 67.708984 577.628418 61.952148 Q 582.923828 56.195312 582.923828 46.175781 L 582.923828 38.397461 L 555.677734 38.397461 L 555.589844 38.133789 Q 555.941406 34.398438 558.358398 32.091309 Q 560.775391 29.784180 565.301758 29.784180 Q 569.564453 29.784180 572.398926 30.487305 Q 575.233398 31.190430 578.880859 32.728516 L 582.440430 23.675781 Q 579.364258 21.434570 574.178711 19.896484 Q 568.993164 18.358398 563.280273 18.358398 Z M 562.708984 56.283203 Q 559.149414 56.283203 557.457520 54.020020 Q 555.765625 51.756836 555.501953 47.889648 L 555.589844 47.669922 L 568.421875 47.669922 L 568.421875 48.812500 Q 568.421875 52.503906 567.125488 54.393555 Q 565.829102 56.283203 562.708984 56.283203 Z M 602.875000 66.830078 L 603.446289 60.150391 Q 605.775391 63.709961 609.203125 65.709473 Q 612.630859 67.708984 616.849609 67.708984 Q 623.836914 67.708984 627.770020 62.962891 Q 631.703125 58.216797 631.703125 47.889648 L 631.703125 19.281250 L 616.849609 19.281250 L 616.849609 47.933594 Q 616.849609 52.459961 615.399414 54.371582 Q 613.949219 56.283203 611.180664 56.283203 Q 608.807617 56.283203 606.917969 55.448242 Q 605.028320 54.613281 603.753906 53.075195 L 603.753906 19.281250 L 588.944336 19.281250 L 588.944336 66.830078 Z M 656.839844 78.651367 L 656.839844 66.830078 L 664.354492 66.830078 L 664.354492 56.546875 L 656.839844 56.546875 L 656.839844 34.750000 Q 656.839844 32.201172 657.872559 31.080566 Q 658.905273 29.959961 660.663086 29.959961 Q 661.805664 29.959961 662.486816 30.047852 Q 663.167969 30.135742 664.222656 30.399414 L 665.233398 19.413086 Q 662.992188 18.841797 661.190430 18.600098 Q 659.388672 18.358398 656.927734 18.358398 Q 649.588867 18.358398 645.787598 22.269531 Q 641.986328 26.180664 641.986328 34.662109 L 641.986328 56.546875 L 635.350586 56.546875 L 635.350586 66.830078 L 641.986328 66.830078 L 641.986328 78.651367 Z M 696.346680 32.640625 Q 696.346680 34.398438 694.347168 35.782715 Q 692.347656 37.166992 687.074219 38.265625 Q 678.768555 39.891602 674.549805 43.297363 Q 670.331055 46.703125 670.331055 52.679688 Q 670.331055 58.963867 675.604492 63.336426 Q 680.877930 67.708984 689.886719 67.708984 Q 699.378906 67.708984 705.003906 63.468262 Q 710.628906 59.227539 710.365234 52.503906 L 710.277344 52.240234 L 695.863281 52.240234 Q 695.863281 55.052734 694.457031 56.502930 Q 693.050781 57.953125 689.842773 57.953125 Q 687.513672 57.953125 685.931641 56.678711 Q 684.349609 55.404297 684.349609 53.426758 Q 684.349609 51.537109 686.173340 50.218750 Q 687.997070 48.900391 693.534180 47.845703 Q 702.279297 46.131836 706.454102 42.726074 Q 710.628906 39.320312 710.628906 33.080078 Q 710.628906 26.664062 704.937988 22.511230 Q 699.247070 18.358398 689.886719 18.358398 Q 680.174805 18.358398 674.527832 23.280273 Q 668.880859 28.202148 669.144531 34.266602 L 669.232422 34.530273 L 682.679688 34.530273 Q 682.767578 31.146484 684.723145 29.652344 Q 686.678711 28.158203 690.282227 28.158203 Q 693.270508 28.158203 694.808594 29.322754 Q 696.346680 30.487305 696.346680 32.640625 Z" transform="scale(1.000000,1.000000) translate(-1.000000,130.718750)" opacity="1.000000"></path>
    </g>
</svg>