<?xml version="1.0" encoding="UTF-8"?>
<svg width="38px" height="38px" viewBox="0 0 38 38" version="1.1" xmlns="http://www.w3.org/2000/svg" xmlns:xlink="http://www.w3.org/1999/xlink">
    <title>Instagram Copy 2</title>
    <g id="Symbols" stroke="none" stroke-width="1" fill="none" fill-rule="evenodd">
        <g id="Instagram-Copy">
            <g id="facebook-copy" fill="#97A619">
                <circle id="Oval-1" cx="19" cy="19" r="19"></circle>
            </g>
            <path d="M23.126907,28.9353138 C24.7284377,28.8571903 26.1476803,28.4926142 27.3195321,27.3207625 C28.4913838,26.1489108 28.8559599,24.7296681 28.9340833,23.1281374 C29.0122068,21.7479565 28.9991862,20.3807961 28.9991862,19.0006152 C28.9991862,17.6204343 29.0122068,16.2532739 28.9340833,14.873093 C28.8559599,13.2715623 28.4913838,11.8523197 27.3195321,10.6804679 C26.1476803,9.5086162 24.7284377,9.14404011 23.126907,9.06591666 C21.7467261,8.98779321 20.3795657,9.00081379 18.9993848,9.00081379 C17.6192039,9.00081379 16.2520435,8.98779321 14.8718626,9.06591666 C13.2703319,9.14404011 11.8510892,9.5086162 10.6792375,10.6804679 C9.50738576,11.8523197 9.14280966,13.2715623 9.06468622,14.873093 C9.01781215,15.7012016 9.00374993,16.5246227 9,17.3489814 L9,20.6522491 C9.00374993,21.4766077 9.01781215,22.3000289 9.06468622,23.1281374 C9.14280966,24.7296681 9.50738576,26.1489108 10.6792375,27.3207625 C11.8510892,28.4926142 13.2703319,28.8571903 14.8718626,28.9353138 C16.2520435,29.0134372 17.6192039,29.0004167 18.9993848,29.0004167 C20.3795657,29.0004167 21.7467261,29.0134372 23.126907,28.9353138 Z M18.9993848,27.2035773 C17.5410804,27.2035773 14.4161425,27.3207625 13.1010644,26.7999395 C12.6453443,26.6176515 12.3068093,26.3963017 11.9552538,26.0447462 C11.6036983,25.6931907 11.3823485,25.3546557 11.2000605,24.8989356 C10.6792375,23.5838575 10.7964227,20.4589196 10.7964227,19.0006152 C10.7964227,17.5423108 10.6792375,14.4173729 11.2000605,13.1022948 C11.3823485,12.6465747 11.6036983,12.3080398 11.9552538,11.9564843 C12.3068093,11.6049287 12.6453443,11.383579 13.1010644,11.2012909 C14.4161425,10.6804679 17.5410804,10.7976531 18.9993848,10.7976531 C20.4576892,10.7976531 23.5826271,10.6804679 24.8977052,11.2012909 C25.3534253,11.383579 25.6919602,11.6049287 26.0435157,11.9564843 C26.3950713,12.3080398 26.616421,12.6465747 26.7987091,13.1022948 C27.3195321,14.4173729 27.2023469,17.5423108 27.2023469,19.0006152 C27.2023469,20.4589196 27.3195321,23.5838575 26.7987091,24.8989356 C26.616421,25.3546557 26.3950713,25.6931907 26.0435157,26.0447462 C25.6919602,26.3963017 25.3534253,26.6176515 24.8977052,26.7999395 C23.5826271,27.3207625 20.4576892,27.2035773 18.9993848,27.2035773 Z M24.3378204,14.8600724 C25.0018698,14.8600724 25.5357133,14.3262289 25.5357133,13.6621796 C25.5357133,12.9981302 25.0018698,12.4642867 24.3378204,12.4642867 C23.6737711,12.4642867 23.1399276,12.9981302 23.1399276,13.6621796 C23.1399276,14.3262289 23.6737711,14.8600724 24.3378204,14.8600724 Z M18.9993848,24.1307217 C21.8378701,24.1307217 24.1294912,21.8391005 24.1294912,19.0006152 C24.1294912,16.1621299 21.8378701,13.8705088 18.9993848,13.8705088 C16.1608995,13.8705088 13.8692783,16.1621299 13.8692783,19.0006152 C13.8692783,21.8391005 16.1608995,24.1307217 18.9993848,24.1307217 Z M18.9993848,22.3338824 C17.1634837,22.3338824 15.6661176,20.8365163 15.6661176,19.0006152 C15.6661176,17.1647142 17.1634837,15.6673481 18.9993848,15.6673481 C20.8352858,15.6673481 22.3326519,17.1647142 22.3326519,19.0006152 C22.3326519,20.8365163 20.8352858,22.3338824 18.9993848,22.3338824 Z" id="" fill="#FFFFFF" fill-rule="nonzero"></path>
        </g>
    </g>
</svg>