<?xml version="1.0" encoding="utf-8"?>
<!-- Generator: Adobe Illustrator 16.0.0, SVG Export Plug-In . SVG Version: 6.00 Build 0)  -->
<!DOCTYPE svg PUBLIC "-//W3C//DTD SVG 1.1//EN" "http://www.w3.org/Graphics/SVG/1.1/DTD/svg11.dtd">
<svg version="1.1" xmlns="http://www.w3.org/2000/svg" xmlns:xlink="http://www.w3.org/1999/xlink" x="0px" y="0px" width="50px"
	 height="50px" viewBox="0 0 50 50" enable-background="new 0 0 50 50" xml:space="preserve">
<g id="Background">
</g>
<g id="BG" display="none">
	<rect x="-19" y="-18.9" display="inline" fill="#8B254C" width="88" height="88"/>
</g>
<g id="Ebene_3">
	<g>
		<path fill="none" stroke="#8B254C" stroke-width="2" stroke-linecap="round" stroke-linejoin="round" stroke-miterlimit="10" d="
			M41.428,20.99c-0.392,0-0.777,0.029-1.154,0.09c-1.338-2.141-3.709-3.565-6.427-3.565c-2.71,0-5.084,1.424-6.42,3.565
			c-0.377-0.061-0.764-0.09-1.154-0.09c-4.183,0-7.572,3.392-7.572,7.578c0,4.182,3.39,7.573,7.572,7.573v12.625h15.155V36.141
			c4.182,0,7.572-3.391,7.572-7.573C49,24.381,45.609,20.99,41.428,20.99z"/>
		
			<line fill="none" stroke="#8B254C" stroke-width="2" stroke-linecap="round" stroke-linejoin="round" stroke-miterlimit="10" x1="26.272" y1="44.058" x2="41.428" y2="44.058"/>
		<path fill="none" stroke="#8B254C" stroke-width="2" stroke-linecap="round" stroke-linejoin="round" stroke-miterlimit="10" d="
			M27.427,31.356c1.336,2.144,3.71,3.568,6.428,3.568c2.71,0,5.081-1.425,6.419-3.568"/>
		<g>
			<path fill="none" stroke="#8B254C" stroke-width="2" stroke-linecap="round" stroke-linejoin="round" stroke-miterlimit="10" d="
				M6.285,28.449C4.229,23.747,1,13.593,1,9.959c0-4.817,3.297-8.725,7.367-8.725c4.072,0,7.368,3.908,7.368,8.725
				c0,3.65-3.263,13.865-5.313,18.544"/>
			<path fill="none" stroke="#8B254C" stroke-width="2" stroke-linecap="round" stroke-linejoin="round" stroke-miterlimit="10" d="
				M7.793,28.45C6.906,23.748,5.201,13.593,5.201,9.959c0-4.817,1.417-8.725,3.166-8.725c1.751,0,3.169,3.908,3.169,8.725
				c0,3.638-1.708,13.811-2.597,18.507"/>
			<path fill="none" stroke="#8B254C" stroke-width="2" stroke-linecap="round" stroke-linejoin="round" stroke-miterlimit="10" d="
				M11.209,47.938c0,0.318-0.254,0.576-0.577,0.576H6.104c-0.323,0-0.577-0.258-0.577-0.576V29.052c0-0.317,0.254-0.577,0.577-0.577
				h4.527c0.323,0,0.577,0.259,0.577,0.577V47.938z"/>
		</g>
	</g>
</g>
</svg>
