<?xml version="1.0" encoding="UTF-8"?>
<!-- Generator: Adobe Illustrator 16.0.3, SVG Export Plug-In . SVG Version: 6.00 Build 0)  -->
<!DOCTYPE svg PUBLIC "-//W3C//DTD SVG 1.1//EN" "http://www.w3.org/Graphics/SVG/1.1/DTD/svg11.dtd">
<svg version="1.1" id="Ebene_1" xmlns="http://www.w3.org/2000/svg" xmlns:xlink="http://www.w3.org/1999/xlink" x="0px" y="0px" width="141.733px" height="141.954px" viewBox="0 0 141.733 141.954" enable-background="new 0 0 141.733 141.954" xml:space="preserve">
<g>
	<g>
		<rect y="108.161" fill="#005CA9" width="141.733" height="33.793"/>
		<rect fill="#005CA9" width="141.733" height="104.882"/>
		<rect y="104.882" fill="#FFFFFF" width="141.733" height="3.279"/>
	</g>
	<g>
		<path fill="#FFFFFF" d="M66.723,131.786V123.6l-3.52,8.187h-1.666l-3.463-8.187v8.187h-3.262V118.32h4.428l3.258,7.815l3.41-7.815    h4.074v13.466H66.723z"/>
		<path fill="#FFFFFF" d="M73.004,131.786V118.32h2.758c0.334,0,0.52,0.223,0.52,0.537v12.929H73.004z"/>
		<path fill="#FFFFFF" d="M86.114,124.119h4.277c0.354,0,0.539,0.276,0.539,0.61v6.871c-1.225,0.278-3.055,0.445-4.482,0.445    c-4.926,0-7.574-2.483-7.574-7.002c0-4.038,2.648-6.982,6.961-6.982c1.947,0,3.539,0.5,4.631,1.241l-1.24,2.148    c-1.018-0.481-2.131-0.723-3.131-0.723c-2.631,0-3.813,1.778-3.813,4.315c0,2.685,1.367,4.389,3.998,4.389    c0.463,0,1.131-0.037,1.596-0.111v-2.631h-1.762V124.119z"/>
		<path fill="#FFFFFF" d="M101.543,131.786l-1.596-3.798c-0.33-0.761-0.555-1.131-1.242-1.131h-1.59v4.929h-3.17v-12.929    c0-0.277,0.26-0.537,0.52-0.537h4.576c2.594,0,4.813,0.537,4.813,3.854c0,1.5-0.814,2.981-2.387,3.389    c0.779,0.26,1.553,1.258,1.98,2.333l1.537,3.891H101.543z M98.893,120.821h-1.777v3.463h1.777c1.02,0,1.908-0.572,1.908-1.852    C100.801,121.043,100.004,120.821,98.893,120.821z"/>
		<path fill="#FFFFFF" d="M112.581,132.046c-4.316,0-6.482-3.224-6.482-7.021c0-3.778,2.352-6.964,6.664-6.964    c4.113,0,6.354,3.093,6.354,6.872C119.116,128.729,116.618,132.046,112.581,132.046z M112.688,120.729    c-1.867,0-3.146,1.371-3.146,4.297c0,2.944,1.297,4.353,3.203,4.353c1.648,0,2.928-1.408,2.928-4.353    C115.672,122.1,114.393,120.729,112.688,120.729z"/>
		<path fill="#FFFFFF" d="M126.026,132.046c-2.279,0-4.334-0.815-5.277-1.464l1.426-2.539c0.85,0.52,2.572,1.316,4.111,1.316    c0.961,0,2.057-0.204,2.057-1.26c0-1.02-1.225-1.335-2.834-1.798c-1.947-0.554-4.205-1.388-4.205-3.85    c0-2.724,2.426-4.391,5.594-4.391c2.148,0,3.814,0.759,4.666,1.574l-1.723,1.945c-0.924-0.557-1.943-0.982-3-0.982    c-1.408,0-2.094,0.519-2.094,1.26c0,0.834,0.779,1.148,2.131,1.594c2.039,0.667,4.834,1.259,4.834,3.906    C131.711,130.045,129.487,132.046,126.026,132.046z"/>
	</g>
	<g>
		<path fill="#FFFFFF" d="M20.799,29.944h-2.897c-0.469,0-0.828-0.221-1.076-0.69l-2.98-5.933v5.877    c0,0.414-0.331,0.745-0.745,0.745h-2.097c-0.414,0-0.745-0.331-0.745-0.745V11.152c0-0.414,0.331-0.745,0.745-0.745H13.1    c0.414,0,0.745,0.331,0.745,0.745v10.514l2.622-4.388c0.248-0.414,0.606-0.635,1.076-0.635h2.704c0.441,0,0.607,0.469,0.331,0.855    l-3.449,4.747l4.057,6.843C21.406,29.475,21.24,29.944,20.799,29.944z"/>
		<path fill="#FFFFFF" d="M27.035,29.944h-2.098c-0.413,0-0.745-0.331-0.745-0.745V11.152c0-0.414,0.332-0.745,0.745-0.745h2.098    c0.414,0,0.745,0.331,0.745,0.745v18.047C27.78,29.613,27.449,29.944,27.035,29.944z"/>
		<path fill="#FFFFFF" d="M41.521,29.944h-1.601c-0.441,0-0.689-0.276-0.772-0.662l-0.193-0.828    c-1.048,1.104-2.345,1.684-3.78,1.684c-2.069,0-3.532-1.38-3.532-3.45v-9.299c0-0.414,0.331-0.745,0.745-0.745h2.098    c0.414,0,0.745,0.332,0.745,0.745v8.582c0,0.662,0.414,1.159,1.27,1.159c1.187,0,2.18-1.131,2.18-2.732v-7.009    c0-0.414,0.331-0.745,0.745-0.745h2.097c0.414,0,0.745,0.332,0.745,0.745v11.811C42.267,29.613,41.936,29.944,41.521,29.944z"/>
		<path fill="#FFFFFF" d="M52.587,30.138c-1.655,0-2.539-0.745-3.201-1.656l-0.165,0.717c-0.11,0.441-0.497,0.745-0.911,0.745    h-1.435c-0.414,0-0.745-0.331-0.745-0.745V11.152c0-0.414,0.331-0.745,0.745-0.745h2.097c0.414,0,0.745,0.331,0.745,0.745v6.567    c0.607-0.745,1.546-1.407,2.98-1.407c1.655,0,4.719,1.076,4.719,6.733C57.416,29.117,54.877,30.138,52.587,30.138z M51.594,19.348    c-1.159,0-2.015,1.159-2.015,3.891c0,2.677,0.883,3.725,2.015,3.725c1.27,0,2.097-0.8,2.097-3.725    C53.69,20.535,53.111,19.348,51.594,19.348z"/>
		<path fill="#FFFFFF" d="M64.756,30.138c-1.435,0-2.925-0.387-4.111-0.855c-0.414-0.166-0.58-0.497-0.47-0.883l0.497-1.545    c0.138-0.414,0.441-0.689,0.883-0.524c0.993,0.358,2.015,0.772,3.035,0.772c0.884,0,1.242-0.414,1.242-0.993    c0-0.828-0.938-1.27-2.042-1.821c-1.49-0.773-3.229-1.573-3.229-4.029c0-2.235,1.49-3.946,4.388-3.946    c1.38,0,2.097,0.11,3.339,0.607c0.386,0.166,0.689,0.497,0.552,0.883l-0.47,1.242c-0.165,0.414-0.469,0.69-0.854,0.552    c-0.553-0.193-1.325-0.552-2.264-0.552c-0.772,0-1.104,0.469-1.104,0.994c0,0.607,1.076,1.076,2.235,1.683    c1.435,0.745,3.035,1.683,3.035,4.194C69.419,27.93,68.205,30.138,64.756,30.138z"/>
		<path fill="#FFFFFF" d="M81.174,29.668c-0.883,0.331-1.932,0.469-2.953,0.469c-3.615,0-5.904-2.152-5.904-7.092    c0-3.753,2.068-6.733,6.182-6.733c0.826,0,1.709,0.166,2.482,0.469c0.496,0.193,0.58,0.552,0.496,0.855l-0.496,1.573    c-0.109,0.331-0.359,0.58-0.883,0.441c-0.387-0.11-0.717-0.248-1.324-0.248c-1.766,0-2.76,1.131-2.76,3.643    c0,2.759,0.773,3.918,2.814,3.918c0.496,0,1.188-0.055,1.711-0.221c0.469-0.138,0.689,0.083,0.773,0.469l0.303,1.628    C81.698,29.227,81.616,29.503,81.174,29.668z"/>
		<path fill="#FFFFFF" d="M94.668,29.944h-2.098c-0.414,0-0.744-0.331-0.744-0.745v-8.72c0-0.663-0.277-1.159-1.133-1.159    c-1.186,0-2.041,1.076-2.041,2.732v7.147c0,0.414-0.332,0.745-0.746,0.745h-2.096c-0.414,0-0.746-0.331-0.746-0.745V11.152    c0-0.414,0.332-0.745,0.746-0.745h2.096c0.414,0,0.746,0.331,0.746,0.745v6.65c0.744-0.8,1.932-1.49,3.365-1.49    c2.07,0,3.395,1.38,3.395,3.449v9.438C95.413,29.613,95.083,29.944,94.668,29.944z"/>
		<path fill="#FFFFFF" d="M109.155,29.944h-1.6c-0.441,0-0.691-0.276-0.773-0.662l-0.193-0.828    c-1.049,1.104-2.346,1.684-3.779,1.684c-2.07,0-3.533-1.38-3.533-3.45v-9.299c0-0.414,0.332-0.745,0.746-0.745h2.096    c0.414,0,0.746,0.332,0.746,0.745v8.582c0,0.662,0.414,1.159,1.27,1.159c1.186,0,2.18-1.131,2.18-2.732v-7.009    c0-0.414,0.33-0.745,0.744-0.745h2.098c0.414,0,0.746,0.332,0.746,0.745v11.811C109.901,29.613,109.569,29.944,109.155,29.944z"/>
		<path fill="#FFFFFF" d="M116.606,29.944h-2.098c-0.414,0-0.746-0.331-0.746-0.745V11.152c0-0.414,0.332-0.745,0.746-0.745h2.098    c0.414,0,0.744,0.331,0.744,0.745v18.047C117.35,29.613,117.02,29.944,116.606,29.944z"/>
		<path fill="#FFFFFF" d="M130.788,24.398h-6.209c0.139,1.462,0.498,2.622,2.76,2.622c1.076,0,1.85-0.249,2.594-0.524    c0.471-0.166,0.662,0.083,0.773,0.441l0.553,1.601c0.137,0.414-0.111,0.69-0.441,0.828c-1.242,0.552-2.402,0.773-4.195,0.773    c-3.561,0-5.822-2.235-5.822-6.954c0-4.001,2.014-6.871,5.408-6.871c3.643,0,5.326,2.483,5.326,7.34    C131.534,24.067,131.202,24.398,130.788,24.398z M126.29,19.127c-1.297,0-1.654,1.352-1.738,2.98h3.395    C127.946,20.535,127.586,19.127,126.29,19.127z"/>
	</g>
</g>
</svg>