<svg width="33" height="33" viewBox="0 0 33 33" fill="none" xmlns="http://www.w3.org/2000/svg">
<path d="M0 33C0.123378 32.2571 0.179926 31.6189 0.334148 31.0121C1.29032 27.2352 4.36448 24.5934 8.1532 24.2586C9.75711 24.1174 11.3662 23.9814 12.9701 23.8349C17.1495 23.453 21.2621 26.4767 22.2285 30.6407C22.2645 30.7872 22.2697 30.9389 22.3056 31.19C14.9133 31.7916 7.54146 32.3879 0.00514183 33" fill="#EEE2D5"/>
<path d="M3.61328 17.3378C3.65955 15.4022 4.14792 13.9166 5.4074 12.8651C7.71044 10.9505 11.1753 10.8772 13.2676 14.2043C13.8125 15.0674 14.234 16.0927 14.414 17.0971C14.7841 19.1478 13.7457 20.7067 12.2754 21.9622C11.7048 22.4487 11.0262 22.841 10.3374 23.1444C9.13443 23.6728 7.91608 23.542 6.83652 22.7939C4.85734 21.4181 3.68525 19.5401 3.61842 17.3378" fill="#EEE2D5"/>
<path d="M21.3145 5.79773C21.3607 3.86219 21.8491 2.37652 23.1086 1.32505C25.4116 -0.589577 28.8765 -0.662807 30.9687 2.66424C31.5137 3.52739 31.9352 4.55271 32.1151 5.5571C32.4853 7.60774 31.4468 9.16663 29.9766 10.4221C29.406 10.9086 28.7274 11.301 28.0385 11.6044C26.8356 12.1327 25.6172 12.002 24.5377 11.2539C22.5585 9.87808 21.3864 8.00007 21.3196 5.79773" fill="#EEE2D5"/>
</svg>
