<svg xmlns="http://www.w3.org/2000/svg" viewBox="0 0 674 674" style="enable-background:new 0 0 674 674" xml:space="preserve"><path d="M559.2 112.4c-59.3-59.3-138.2-92-222.1-92s-162.8 32.7-222.1 92c-59.3 59.3-92 138.2-92 222.1s32.7 162.8 92 222.1c59.3 59.3 138.2 92 222.1 92s162.8-32.7 222.1-92 92-138.2 92-222.1-32.6-162.8-92-222.1zm-20.5 423.7c-53.8 53.8-125.4 83.5-201.6 83.5S189.4 590 135.5 536.1C81.7 482.3 52 410.7 52 334.5s29.7-147.7 83.5-201.6C189.4 79.1 261 49.4 337.1 49.4s147.7 29.7 201.6 83.5c53.8 53.8 83.5 125.4 83.5 201.6s-29.6 147.8-83.5 201.6z"/><path d="M276.8 346.7h135.4v-36.1H276.8V205.9h163.6v-38.4H232.1v327.3h214.1v-38.4H276.8z"/></svg>