<svg xmlns="http://www.w3.org/2000/svg" viewBox="0 0 674 674" style="enable-background:new 0 0 674 674" xml:space="preserve"><path d="M559.1 112.4c-59.3-59.3-138.2-92-222.1-92s-162.8 32.7-222.1 92c-59.3 59.3-92 138.2-92 222.1s32.7 162.8 92 222.1 138.2 92 222.1 92 162.8-32.7 222.1-92c59.3-59.3 92-138.2 92-222.1s-32.7-162.8-92-222.1zm-20.5 423.7C484.8 590 413.2 619.6 337 619.6S189.3 590 135.4 536.1c-53.8-53.8-83.5-125.4-83.5-201.6s29.7-147.7 83.5-201.6C189.3 79.1 260.9 49.4 337 49.4s147.7 29.7 201.6 83.5c53.8 53.8 83.5 125.4 83.5 201.6s-29.6 147.8-83.5 201.6z"/><path d="m593.2 345.7-67.5-38.2c17.3-11.6 28.8-31.4 28.8-53.8 0-35.7-29.1-64.8-64.8-64.8s-64.8 29.1-64.8 64.8c0 24.1 13.2 45.1 32.7 56.3l-21.2 12v-12.3L366.2 270c19.6-12.2 32.7-34 32.7-58.8 0-38.2-31.1-69.3-69.3-69.3s-69.3 31.1-69.3 69.3c0 24.8 13.1 46.6 32.7 58.8l-70.2 39.7v29.9l-21.3-12.1c13.5-10 22.3-26.1 22.3-44.2 0-30.4-24.7-55.1-55.1-55.1s-55.1 24.7-55.1 55.1c0 18.7 9.4 35.3 23.7 45.2l-51.9 29.3c-7 3.9-9.4 12.8-5.5 19.8 2.7 4.7 7.6 7.4 12.6 7.4 2.4 0 4.9-.6 7.1-1.9l70.5-39.9 52.5 29.7v120.9c0 8 6.5 14.5 14.5 14.5s14.5-6.5 14.5-14.5V326.5l77.8-44 77.8 44v167.1c0 8 6.5 14.5 14.5 14.5s14.5-6.5 14.5-14.5V355.2l57.4-32.5 85.1 48.2c2.3 1.3 4.7 1.9 7.1 1.9 5.1 0 10-2.6 12.6-7.4 4.2-6.9 1.8-15.8-5.2-19.7zm-424.4-88.6c14.4 0 26.1 11.7 26.1 26.1s-11.7 26.1-26.1 26.1-26.1-11.7-26.1-26.1 11.7-26.1 26.1-26.1zm160.8-86.4c22.2 0 40.3 18.1 40.3 40.3s-18.1 40.3-40.3 40.3-40.3-18.1-40.3-40.3 18.1-40.3 40.3-40.3zm160 47.1c19.8 0 35.8 16.1 35.8 35.8 0 19.8-16.1 35.8-35.8 35.8-19.8 0-35.8-16.1-35.8-35.8 0-19.7 16.1-35.8 35.8-35.8z"/></svg>