<svg xmlns="http://www.w3.org/2000/svg" viewBox="0 0 674 674" style="enable-background:new 0 0 674 674" xml:space="preserve"><path d="M401.1 360.6c-6.1 5.1-6.9 14.3-1.8 20.4 2.9 3.4 7 5.2 11.1 5.2 3.3 0 6.6-1.1 9.3-3.4 25.3-21.2 39.8-52.4 39.8-85.4 0-61.4-50-111.4-111.4-111.4-53 0-99 37.7-109.3 89.6-1.6 7.9 3.5 15.5 11.4 17 7.9 1.6 15.5-3.5 17-11.4 7.6-38.4 41.6-66.3 80.8-66.3 45.4 0 82.4 37 82.4 82.4.2 24.6-10.5 47.6-29.3 63.3z"/><path d="M539.6 119.8 468.1 191c-30.1-32.2-73-52.3-120.5-52.3-78.6 0-146.7 55.8-161.9 132.8-1.6 7.9 3.5 15.5 11.4 17 7.9 1.6 15.5-3.5 17-11.4 12.6-63.4 68.7-109.4 133.5-109.4 75 0 136.1 61.1 136.1 136.1 0 40-17.4 77.7-47.8 103.6-7.4 4.5-42.7 28.2-54.8 71.8-5 18.2-21.4 36.1-41.7 45.6-19.8 9.2-40.8 9.7-59.2 1.3-7.3-3.3-15.9-.1-19.2 7.2-3.3 7.3-.1 15.9 7.2 19.2 12.6 5.8 26 8.6 39.6 8.6 14.7 0 29.5-3.3 43.8-10 28.1-13.1 50-37.7 57.4-64.1 9.9-35.9 42.2-54.9 42.5-55.1l1.1-.6 1-.8c37.5-31.5 59-77.6 59-126.5 0-33.1-9.8-63.9-26.6-89.8l73.9-73.6c5.7-5.7 5.7-14.8 0-20.5-5.4-5.9-14.6-5.9-20.3-.3z"/><path d="M285.5 393.4c-5.7-5.7-14.8-5.7-20.5 0L115.1 542.7c-5.7 5.7-5.7 14.8 0 20.5 2.8 2.8 6.6 4.3 10.3 4.3 3.7 0 7.4-1.4 10.2-4.2L285.5 414c5.7-5.8 5.7-14.9 0-20.6z"/><path d="M555 26.9H119C66 26.9 22.9 70 22.9 123v428.1c0 53 43.1 96.1 96.1 96.1h436c53 0 96.1-43.1 96.1-96.1V123c0-53-43.1-96.1-96.1-96.1zm67.1 524.2c0 37-30.1 67.1-67.1 67.1H119c-37 0-67.1-30.1-67.1-67.1V123c0-37 30.1-67.1 67.1-67.1h436c37 0 67.1 30.1 67.1 67.1v428.1z"/></svg>