<svg xmlns="http://www.w3.org/2000/svg" viewBox="0 0 674 674" style="enable-background:new 0 0 674 674" xml:space="preserve"><path d="M559.1 112.4c-59.3-59.3-138.2-92-222.1-92s-162.8 32.7-222.1 92c-59.3 59.3-92 138.2-92 222.1s32.7 162.8 92 222.1c59.3 59.3 138.2 92 222.1 92s162.8-32.7 222.1-92 92-138.2 92-222.1-32.7-162.8-92-222.1zm-20.5 423.7C484.8 590 413.2 619.6 337 619.6S189.3 590 135.4 536.1c-53.8-53.8-83.5-125.4-83.5-201.6s29.7-147.7 83.5-201.6C189.3 79.1 260.9 49.4 337 49.4s147.7 29.7 201.6 83.5c53.8 53.8 83.5 125.4 83.5 201.6s-29.6 147.8-83.5 201.6z"/><path d="M503.5 320.4c-8 0-14.5 6.5-14.5 14.5 0 83.8-68.2 152-152 152s-152-68.2-152-152c0-76.2 56.3-139.4 129.5-150.3l-23.6 56c-3.1 7.4.3 15.9 7.7 19 7.4 3.1 15.9-.3 19-7.7l32.8-77.8c0-.1.1-.2.1-.3.3-.4.6-.8.8-1.3 3.9-7 1.4-15.8-5.5-19.7l-75.1-42.2c-7-3.9-15.8-1.4-19.7 5.5-3.9 7-1.4 15.8 5.5 19.7l40.4 22.7C216.3 176.8 156 248.9 156 334.9c0 99.8 81.2 181 181 181s181-81.2 181-181c0-8-6.5-14.5-14.5-14.5z"/></svg>