<svg xmlns="http://www.w3.org/2000/svg" viewBox="0 0 674 674" xml:space="preserve"><path d="M558.7 112.4c-59.3-59.3-138.2-92-222.1-92s-162.8 32.7-222.1 92c-59.3 59.3-92 138.2-92 222.1s32.7 162.8 92 222.1 138.2 92 222.1 92 162.8-32.7 222.1-92 92-138.2 92-222.1-32.7-162.8-92-222.1zm-20.5 423.7c-53.8 53.8-125.4 83.5-201.6 83.5-76.2 0-147.7-29.7-201.6-83.5-53.8-53.8-83.5-125.4-83.5-201.6S81.2 186.8 135 132.9c53.8-53.8 125.4-83.5 201.6-83.5s147.7 29.7 201.6 83.5c53.8 53.8 83.5 125.4 83.5 201.6s-29.6 147.8-83.5 201.6z"/><path d="M495.2 191.9H299.9c-8 0-14.5 6.5-14.5 14.5s6.5 14.5 14.5 14.5h195.3c8 0 14.5-6.5 14.5-14.5s-6.5-14.5-14.5-14.5zM495.2 257.5H299.9c-8 0-14.5 6.5-14.5 14.5s6.5 14.5 14.5 14.5h195.3c8 0 14.5-6.5 14.5-14.5s-6.5-14.5-14.5-14.5zM495.2 323.2H179.1c-8 0-14.5 6.5-14.5 14.5s6.5 14.5 14.5 14.5h316.1c8 0 14.5-6.5 14.5-14.5s-6.5-14.5-14.5-14.5zM495.2 388.9H179.1c-8 0-14.5 6.5-14.5 14.5s6.5 14.5 14.5 14.5h316.1c8 0 14.5-6.5 14.5-14.5s-6.5-14.5-14.5-14.5zM495.2 454.5H179.1c-8 0-14.5 6.5-14.5 14.5s6.5 14.5 14.5 14.5h316.1c8 0 14.5-6.5 14.5-14.5s-6.5-14.5-14.5-14.5zM198.9 258H242l7.9 23.5h20.7l-36.3-99.4h-26.5l-36.5 99.4h19.9l7.7-23.5zm20.4-61.2h2.1l15.5 46h-33l15.4-46z"/></svg>