<?xml version="1.0" encoding="utf-8"?>
<!-- Generator: Adobe Illustrator 24.0.3, SVG Export Plug-In . SVG Version: 6.00 Build 0)  -->
<svg version="1.1" id="Ebene_1" xmlns="http://www.w3.org/2000/svg" xmlns:xlink="http://www.w3.org/1999/xlink" x="0px" y="0px"
	 viewBox="0 0 417.1 107.5" style="enable-background:new 0 0 417.1 107.5;" xml:space="preserve">
<g>
	<polygon points="131.7,30.6 131.7,89 119.5,89 119.5,30.6 92.9,30.6 92.9,20.2 159.7,20.2 159.7,30.6 	"/>
	<g>
		<path d="M266.8,30.4v26.8h23.6c7.6,0,13.1-1,16.6-2.9c3.5-2,5.2-5.4,5.2-10.3c0-1.8-0.2-3.4-0.6-4.8c-0.4-1.4-1-2.6-1.8-3.5
			c-1.6-1.9-4.1-3.3-7.4-4.1c-3.4-0.8-7.6-1.2-12.8-1.2H266.8z M266.8,67.3V89H255V20.2h34.6c12.3,0,21.2,1.9,26.5,5.8
			c5.4,3.9,8.1,9.9,8.1,18c0,7.7-2.8,13.5-8.3,17.4c-5.5,4-13.9,5.9-24.9,5.8H266.8z"/>
		<path d="M361.6,90.2c-3.7-0.5-6.9-1.2-9.8-2.1c-5.7-1.9-10-4.7-13-8.6c-3-3.9-5-8.8-5.9-14.8h12.9c1.1,5.9,4,10,8.6,12.3
			c4.6,2.3,11.2,3.4,19.8,3.4c7.9,0,13.6-0.9,17.1-2.8c3.5-1.8,5.3-4.5,5.3-8.1c0-1.4-0.2-2.6-0.7-3.7c-0.5-1-1.1-1.9-2-2.6
			c-1.8-1.3-4.8-2.2-9-2.8c-4.2-0.5-9.9-1-17-1.4c-3.5-0.3-6.8-0.6-9.7-1c-2.9-0.4-5.6-0.9-8-1.6c-4.6-1.2-8.1-3.2-10.4-5.8
			c-2.3-2.7-3.5-6.3-3.5-11c0-6.4,2.8-11.5,8.3-15.3c5.5-3.8,13.9-5.8,24.9-5.8c11.6,0,20.6,1.9,27,5.8c6.4,3.8,10.3,9.7,11.7,17.6
			h-12.7c-0.8-4.9-3.5-8.3-8.1-10.3c-4.5-2-10.6-2.9-18.2-2.9c-7.5,0-12.9,0.9-16.1,2.8c-3.3,1.8-4.9,4.5-4.9,7.9
			c0,1.1,0.2,2.1,0.5,2.9c0.4,0.9,0.9,1.6,1.6,2.3c1.4,1.3,3.8,2.3,7.4,2.9c3.6,0.6,8.7,1.2,15.4,1.5c4.1,0.2,7.8,0.5,11.1,1
			c3.3,0.5,6.3,1,8.9,1.6c5.2,1.3,9.1,3.3,11.6,5.9c2.5,2.7,3.8,6.4,3.8,11.1c0,7-2.8,12.4-8.4,16.3c-5.6,3.9-14.4,5.8-26.3,5.8
			C369.3,90.9,365.2,90.7,361.6,90.2"/>
		<path d="M244.6,66.5c1.1,6-3.5,11.2-9.4,11.2c-1.8,0-4-0.8-5.2-1.2c-6.7-2.4-19.2-0.7-48.2,21c-2,1.5-4.6,2.7-7.5,2.3
			c-4.1-0.6-7.2-3.8-7.9-8.1c-0.4-2.5,0.4-4.7,1.7-6.7c8.8-13.1-0.6-32.2-1.1-35.7c-0.2-1.5-0.4-2.2-0.4-3.3c0-4.7,2.8-7.5,6.4-9
			c4.3-1.9,12.2-7.9,13.4-17.2c0.6-5.2,2.9-10.4,9.4-10.4h23.1c4.6,0,8.7,4,8.7,8.7c0,5.2-2.9,10-9.4,10h-22.5
			c-12.3,0-15.2,8.3-11.1,13.6c5.7,6.6,20.8,15.3,21.4,5.3c0-7,5.2-9.4,9.4-9.4c5.2,0,9.4,4.1,9.4,9.4c0,5.8-4.7,10-11.1,9.4
			c-7-1.2-19.8-4.5-27.9-4.1c-3.4,0.2-6.9,1.9-8.6,4.1c-6.8,8.7,1.1,19.7,6.3,22.6c11.2,5.7,26.7,0.8,44.1-15.8
			c0.6-0.6,2.9-3.5,7-4.1C239.3,58.5,243.3,61.9,244.6,66.5"/>
	</g>
	<path d="M40.6,90.2c-3.7-0.5-6.9-1.2-9.8-2.1c-5.7-1.9-10-4.7-13-8.6c-3-3.9-5-8.8-5.9-14.8h12.9c1.1,5.9,4,10,8.6,12.3
		c4.6,2.3,11.2,3.4,19.8,3.4c7.9,0,13.6-0.9,17.1-2.8c3.5-1.8,5.3-4.5,5.3-8.1c0-1.4-0.2-2.6-0.7-3.7c-0.5-1-1.1-1.9-2-2.6
		c-1.8-1.3-4.8-2.2-9-2.8c-4.2-0.5-9.9-1-17-1.4c-3.5-0.3-6.8-0.6-9.7-1c-2.9-0.4-5.6-0.9-8-1.6c-4.6-1.2-8.1-3.2-10.4-5.8
		c-2.3-2.7-3.5-6.3-3.5-11c0-6.4,2.8-11.5,8.3-15.3c5.5-3.8,13.9-5.8,24.9-5.8c11.6,0,20.6,1.9,27,5.8c6.4,3.8,10.3,9.7,11.7,17.6
		H74.6c-0.8-4.9-3.5-8.3-8.1-10.3c-4.5-2-10.6-2.9-18.2-2.9c-7.5,0-12.9,0.9-16.1,2.8c-3.3,1.8-4.9,4.5-4.9,7.9
		c0,1.1,0.2,2.1,0.5,2.9c0.4,0.9,0.9,1.6,1.6,2.3c1.4,1.3,3.8,2.3,7.4,2.9c3.6,0.6,8.7,1.2,15.4,1.5c4.1,0.2,7.8,0.5,11.1,1
		c3.3,0.5,6.3,1,8.9,1.6c5.2,1.3,9.1,3.3,11.6,5.9c2.5,2.7,3.8,6.4,3.8,11.1c0,7-2.8,12.4-8.4,16.3c-5.6,3.9-14.4,5.8-26.3,5.8
		C48.3,90.9,44.2,90.7,40.6,90.2"/>
</g>
</svg>
