<svg xmlns="http://www.w3.org/2000/svg" width="147.072" height="34.994" viewBox="0 0 147.072 34.994">
  <g id="Group_1784" data-name="Group 1784" transform="translate(-60.928 -11.548)">
    <g id="_210609_MIGROS_NATURE_GREEN_PANTONE" data-name="210609_MIGROS_NATURE_GREEN_PANTONE" transform="translate(41)">
      <path id="esperluette" d="M386.217,45.3c.218,1.388.4,2.483.456,2.8a6.416,6.416,0,0,1-.214,3.052c-.328.947-1.08,2.319-3.8,3.337l-1.513.569-.429-1.532a5.564,5.564,0,0,1,.511-4.939,6.81,6.81,0,0,1,2.4-1.98c.3-.14,1.306-.651,2.588-1.3m-13.659,3.045.963-1.037a8.13,8.13,0,0,0,.682-11.04c-.394-.5-4.518-6.151-4.557-6.21l-.273-.374-.273.374c-.043.058-4.163,5.707-4.557,6.21a8.114,8.114,0,0,0,.577,10.927l-.343.285c-3.033,2.6-4.584,5.352-4.608,8.19a9.126,9.126,0,0,0,3,6.572,10.052,10.052,0,0,0,6.494,2.436,12.008,12.008,0,0,0,7.952-3.4l2.187,2.468,3.692-3.1Zm-4.6,2.709.331-.273,6.144,6.915a7.391,7.391,0,0,1-4.783,2.257,5.184,5.184,0,0,1-3.216-1.2,4.559,4.559,0,0,1-1.415-3.041C365.046,53.931,366.637,52.192,367.962,51.05Zm1.411-6.245-.546-.589a3.8,3.8,0,0,1-1.247-3.1,4.475,4.475,0,0,1,.823-1.895c.113-.144.433-.573.971-1.3.53.717.854,1.158.971,1.3a4.326,4.326,0,0,1,.823,1.891c.1.651.07,1.684-1.255,3.1Z" transform="translate(-219.767 -18.132)" fill="#fff"/>
      <path id="nature" d="M70.693,66.584v10.79H65.236V67.348c0-2.974-1.707-4.884-4.206-4.884a4.423,4.423,0,0,0-4.456,4.717v10.2H51.12V57.833h3.914l.207,3.314a7.71,7.71,0,0,1,7.036-3.7C67.4,57.451,70.693,61.018,70.693,66.584ZM93.01,57.833V77.378H88.18L87.974,74.7a7.806,7.806,0,0,1-6.331,3.06c-5.29,0-9.2-4.378-9.2-10.155s4.039-10.155,9.328-10.155A8.565,8.565,0,0,1,87.724,59.7l.249-1.871H93.01Zm-5.247,9.773a4.749,4.749,0,0,0-4.916-5.1,5.1,5.1,0,0,0,0,10.2A4.749,4.749,0,0,0,87.763,67.606Zm10.284,2.549V62.507H94.792V57.833h3.419V51.12h5.29v6.713h7.122v4.674H103.5V69.6c0,2.3,1.415,3.146,3.372,3.146a5.668,5.668,0,0,0,3.165-1.06l1.875,4.12a9.868,9.868,0,0,1-6.288,1.953C100.92,77.761,98.047,75.04,98.047,70.155Zm33.521-12.322V77.378h-4.374l-.168-2.549a6.885,6.885,0,0,1-5.871,2.931c-5.165,0-8.83-3.653-8.83-9.134V57.833h5.454V67.52c0,2.931,1.665,4.884,4.039,4.884,2.705,0,4.288-2.125,4.288-4.717V57.833Zm15.823-.214-.46,5.524a4.677,4.677,0,0,0-1.914-.382,4.605,4.605,0,0,0-4.916,4.8v9.816h-5.454V57.833h4.538l.207,3.161c.667-2.378,3.041-3.543,6.331-3.543A7.081,7.081,0,0,1,147.391,57.618Zm19.4,11.515H152.716a5.643,5.643,0,0,0,5.746,3.953,7.294,7.294,0,0,0,5.079-2l2.249,3.992c-1.166,1.06-3.54,2.678-7.913,2.678-6.081,0-10.537-4.417-10.537-10.155a9.808,9.808,0,0,1,10-10.155c5.789,0,9.535,4.335,9.535,10.2A14.051,14.051,0,0,1,166.792,69.134Zm-14.034-3.567h8.911a4.042,4.042,0,0,0-4.124-3.7A4.638,4.638,0,0,0,152.759,65.567Z" transform="translate(-31.192 -31.222)" fill="#fff"/>
    </g>
  </g>
</svg>
