<svg width="38" height="40" viewBox="0 0 38 40" fill="none" xmlns="http://www.w3.org/2000/svg">
<path d="M37.2003 17.2899C36.0466 12.6231 33.7602 8.5461 30.3357 5.13731C23.492 -1.67505 14.5707 -1.20001 7.62785 3.56603C2.49639 7.08444 0.580576 12.5448 0.361328 18.9761C0.465732 19.9053 0.507494 21.1738 0.752843 22.4057C1.98481 28.5551 5.40404 33.3577 10.3006 37.0954C14.602 40.3789 19.3942 40.8487 24.3325 38.6562C28.8688 36.6412 32.4395 33.4256 35.0809 29.2337C37.3986 25.5587 38.2443 21.5496 37.1951 17.2952L37.2003 17.2899ZM19.8327 17.812C18.9974 19.6129 18.0421 20.8031 15.8705 21.1894C12.3104 21.8211 8.82849 22.8964 5.31008 23.7786C5.08039 23.8361 4.84026 23.8622 4.33912 23.9457C5.60241 21.0537 8.14465 20.4116 10.5094 19.5294C13.0308 18.5898 15.4686 19.1118 17.9064 20.041C18.1831 14.2518 18.4598 8.54088 18.7364 2.72036C19.8797 3.27892 20.4173 4.15591 20.6679 5.17907C21.7224 9.4753 21.7485 13.6828 19.8275 17.812H19.8327Z" fill="#EEE2D5"/>
</svg>
