<?xml version="1.0" encoding="utf-8"?>
<!-- Generator: Adobe Illustrator 24.0.3, SVG Export Plug-In . SVG Version: 6.00 Build 0)  -->
<svg version="1.1" id="Ebene_1" xmlns="http://www.w3.org/2000/svg" xmlns:xlink="http://www.w3.org/1999/xlink" x="0px" y="0px"
	 viewBox="0 0 238.3 226.8" style="enable-background:new 0 0 238.3 226.8;" xml:space="preserve">
<g>
	<g>
		<path d="M214.9,140.8c2.4,13.2-7.8,24.8-20.7,24.8c-4,0-8.9-1.7-11.6-2.7c-14.8-5.2-42.5-1.6-106.9,46.6
			c-4.4,3.3-10.3,6.1-16.7,5.1c-9.1-1.4-16-8.5-17.4-17.9c-0.9-5.6,0.8-10.4,3.8-14.8c19.5-29-1.3-71.3-2.5-79
			c-0.5-3.2-0.8-5-0.8-7.4c0-10.5,6.1-16.5,14.3-20C66,71.4,83.3,58.1,86,37.4c1.3-11.6,6.5-23.1,20.7-23.1H158
			c10.2,0,19.4,8.9,19.4,19.4c0,11.6-6.5,22.1-20.7,22.1h-49.9c-27.2,0-33.6,18.5-24.5,30.1c12.7,14.5,46,33.9,47.4,11.8
			c0-15.6,11.6-20.7,20.7-20.7c11.6,0,20.7,9.2,20.7,20.7c0,12.9-10.5,22.1-24.5,20.7c-15.6-2.7-43.8-10-61.9-9.1
			c-7.5,0.4-15.2,4.2-19.1,9.1c-15.2,19.2,2.4,43.6,14,50.1c24.8,12.6,59.1,1.7,97.7-35c1.4-1.3,6.5-7.8,15.6-9.1
			C203.3,123,212.2,130.6,214.9,140.8"/>
	</g>
</g>
</svg>
